<?xml version="1.0" encoding="UTF-8"?>
<svg width="26px" height="26px" viewBox="0 0 26 26" version="1.1" xmlns="http://www.w3.org/2000/svg" xmlns:xlink="http://www.w3.org/1999/xlink">
    <title>barTimer</title>
    <g id="barTimer" stroke="none" fill="none" fill-rule="evenodd">
        <circle id="椭圆形" fill="#FFFFFF" cx="12.9004" cy="12.7295" r="9.671875"></circle>
        <g id="编组" stroke-width="1">
            <rect id="矩形" fill="#000000" fill-rule="nonzero" opacity="0" x="0" y="0" width="25.8008" height="25.459"></rect>
            <path d="M25.4395,12.7246 C25.4395,19.7266 19.7266,25.4395 12.7148,25.4395 C5.71289,25.4395 0,19.7266 0,12.7246 C0,5.71289 5.71289,0 12.7148,0 C19.7266,0 25.4395,5.71289 25.4395,12.7246 Z M11.9727,6.17188 L11.9727,8.25195 C11.9727,8.64258 12.2461,8.96484 12.6562,8.96484 C13.0566,8.96484 13.3398,8.64258 13.3398,8.25195 L13.3398,6.94336 C16.2988,7.24609 18.5254,9.66797 18.5254,12.7246 C18.5254,15.9766 15.9766,18.5449 12.7148,18.5449 C9.46289,18.5449 6.89453,15.9766 6.89453,12.7246 C6.89453,11.2207 7.45117,9.92188 8.35938,8.88672 C8.61328,8.57422 8.64258,8.13477 8.33984,7.85156 C8.04688,7.5293 7.55859,7.56836 7.24609,7.92969 C6.11328,9.19922 5.41016,10.8984 5.41016,12.7246 C5.41016,16.7188 8.71094,20.0195 12.7148,20.0195 C16.7188,20.0195 20.0195,16.7188 20.0195,12.7246 C20.0195,8.7207 16.7188,5.41992 12.7246,5.41992 C12.2266,5.41992 11.9727,5.73242 11.9727,6.17188 Z M9.58984,10.0879 L11.9336,13.5156 C12.4121,14.2285 13.2715,14.3652 13.877,13.7598 C14.4824,13.1348 14.3555,12.2949 13.6523,11.8066 L10.2344,9.45312 C9.75586,9.15039 9.25781,9.61914 9.58984,10.0879 Z" id="形状" fill="#FF9500" fill-rule="nonzero"></path>
        </g>
    </g>
</svg>